<svg id="visual" viewBox="0 0 900 600" width="900" height="600" xmlns="http://www.w3.org/2000/svg" xmlns:xlink="http://www.w3.org/1999/xlink" version="1.1"><rect x="0" y="0" width="900" height="600" fill="#222831"></rect><defs><linearGradient id="grad1_0" x1="33.3%" y1="100%" x2="100%" y2="0%"><stop offset="20%" stop-color="#222831" stop-opacity="1"></stop><stop offset="80%" stop-color="#222831" stop-opacity="1"></stop></linearGradient></defs><defs><linearGradient id="grad2_0" x1="0%" y1="100%" x2="66.7%" y2="0%"><stop offset="20%" stop-color="#222831" stop-opacity="1"></stop><stop offset="80%" stop-color="#222831" stop-opacity="1"></stop></linearGradient></defs><g transform="translate(900, 600)"><path d="M-351.5 0C-325.5 -37.9 -299.4 -75.8 -284.6 -117.9C-269.7 -159.9 -266.1 -206.2 -243.2 -243.2C-220.4 -280.3 -178.3 -308.3 -134.5 -324.8C-90.8 -341.3 -45.4 -346.4 0 -351.5L0 0Z" fill="#00ADB5"></path></g><g transform="translate(0, 0)"><path d="M351.5 0C325.8 37.9 300 75.8 285.5 118.2C271 160.7 267.7 207.7 244.7 244.7C221.6 281.6 178.6 308.6 134.5 324.8C90.4 340.9 45.2 346.2 0 351.5L0 0Z" fill="#00ADB5"></path></g></svg>